# xmcd
#
# Track frame offsets:
#	150
#	23099
#	43185
#	58520
#	73211
#	92435
#	108523
#	126002
#	146409
#	169755
#
# Disc length: 2536 seconds
#
# Revision: 0
# Processed by: cddbd v1.5.2PL0 Copyright (c) Steve Scherf et al.
# Submitted via: EasyCDDAExtractor 2010.4.0.0
#
DISCID=8609e60a
DTITLE=Jane e Luzia - Lágrimas de Amor
DYEAR=2000
DGENRE=Gospel
TTITLE0=Lágrimas de Amor
TTITLE1=Lá no Calvário
TTITLE2=A vaidade do Homem e a humildade de Cristo
TTITLE3=Emanuel
TTITLE4=Vejo Deus na Natureza
TTITLE5=Cruz de Madeira
TTITLE6=Caminho do Calvário
TTITLE7=A Maior Vitória
TTITLE8=Tuas Lágrimas
TTITLE9=Ovelha Desgarrada
EXTD=
EXTT0=
EXTT1=
EXTT2=
EXTT3=
EXTT4=
EXTT5=
EXTT6=
EXTT7=
EXTT8=
EXTT9=
PLAYORDER=
